<mxfile host="app.diagrams.net" modified="2020-12-02T21:42:24.367Z" agent="5.0 (Macintosh; Intel Mac OS X 11_0_0) AppleWebKit/537.36 (KHTML, like Gecko) Chrome/86.0.4240.198 Safari/537.36" etag="ZXs0inhZWNojhu3NNWTP" version="13.10.6" type="github">
  <diagram id="DneVaAyhdad69BxYedYH" name="Page-1">
    <mxGraphModel dx="1188" dy="640" grid="1" gridSize="10" guides="1" tooltips="1" connect="1" arrows="1" fold="1" page="1" pageScale="1" pageWidth="850" pageHeight="1100" math="0" shadow="0">
      <root>
        <mxCell id="0" />
        <mxCell id="1" parent="0" />
        <mxCell id="nuIwZcw9V5fFqdJJb3ko-9" style="edgeStyle=orthogonalEdgeStyle;rounded=0;orthogonalLoop=1;jettySize=auto;html=1;exitX=1;exitY=0.5;exitDx=0;exitDy=0;entryX=0;entryY=0.5;entryDx=0;entryDy=0;" edge="1" parent="1" source="nuIwZcw9V5fFqdJJb3ko-1" target="nuIwZcw9V5fFqdJJb3ko-7">
          <mxGeometry relative="1" as="geometry" />
        </mxCell>
        <mxCell id="nuIwZcw9V5fFqdJJb3ko-1" value="" style="ellipse;whiteSpace=wrap;html=1;aspect=fixed;fillColor=#000000;" vertex="1" parent="1">
          <mxGeometry y="280" width="40" height="40" as="geometry" />
        </mxCell>
        <mxCell id="nuIwZcw9V5fFqdJJb3ko-4" value="" style="group" vertex="1" connectable="0" parent="1">
          <mxGeometry x="760" y="275" width="50" height="50" as="geometry" />
        </mxCell>
        <mxCell id="nuIwZcw9V5fFqdJJb3ko-3" value="" style="ellipse;whiteSpace=wrap;html=1;aspect=fixed;fillColor=#FFFFFF;" vertex="1" parent="nuIwZcw9V5fFqdJJb3ko-4">
          <mxGeometry width="50" height="50" as="geometry" />
        </mxCell>
        <mxCell id="nuIwZcw9V5fFqdJJb3ko-2" value="" style="ellipse;whiteSpace=wrap;html=1;aspect=fixed;fillColor=#000000;" vertex="1" parent="nuIwZcw9V5fFqdJJb3ko-4">
          <mxGeometry x="5" y="5" width="40" height="40" as="geometry" />
        </mxCell>
        <mxCell id="nuIwZcw9V5fFqdJJb3ko-10" style="edgeStyle=orthogonalEdgeStyle;rounded=0;orthogonalLoop=1;jettySize=auto;html=1;exitX=1;exitY=0.5;exitDx=0;exitDy=0;entryX=0;entryY=0.5;entryDx=0;entryDy=0;" edge="1" parent="1" source="nuIwZcw9V5fFqdJJb3ko-7" target="nuIwZcw9V5fFqdJJb3ko-8">
          <mxGeometry relative="1" as="geometry" />
        </mxCell>
        <mxCell id="nuIwZcw9V5fFqdJJb3ko-7" value="3D Microstructure Reconstructor" style="rounded=1;whiteSpace=wrap;html=1;fillColor=#FFFFFF;" vertex="1" parent="1">
          <mxGeometry x="200" y="270" width="120" height="60" as="geometry" />
        </mxCell>
        <mxCell id="nuIwZcw9V5fFqdJJb3ko-13" style="edgeStyle=orthogonalEdgeStyle;rounded=0;orthogonalLoop=1;jettySize=auto;html=1;exitX=1;exitY=0.5;exitDx=0;exitDy=0;entryX=0;entryY=0.5;entryDx=0;entryDy=0;" edge="1" parent="1" source="nuIwZcw9V5fFqdJJb3ko-8" target="nuIwZcw9V5fFqdJJb3ko-3">
          <mxGeometry relative="1" as="geometry" />
        </mxCell>
        <mxCell id="nuIwZcw9V5fFqdJJb3ko-8" value="3D Node-Edge Graph Generator" style="rounded=1;whiteSpace=wrap;html=1;fillColor=#FFFFFF;" vertex="1" parent="1">
          <mxGeometry x="480" y="270" width="120" height="60" as="geometry" />
        </mxCell>
        <mxCell id="nuIwZcw9V5fFqdJJb3ko-12" value="" style="html=1;whiteSpace=wrap;aspect=fixed;shape=isoRectangle;fillColor=#FFFFFF;" vertex="1" parent="1">
          <mxGeometry x="75" y="180" width="100" height="60" as="geometry" />
        </mxCell>
        <mxCell id="nuIwZcw9V5fFqdJJb3ko-14" value="" style="html=1;whiteSpace=wrap;shape=isoCube2;backgroundOutline=1;isoAngle=15;fillColor=#FFFFFF;" vertex="1" parent="1">
          <mxGeometry x="370" y="175" width="70" height="75" as="geometry" />
        </mxCell>
        <mxCell id="nuIwZcw9V5fFqdJJb3ko-16" value="" style="shape=table;html=1;whiteSpace=wrap;startSize=0;container=1;collapsible=0;childLayout=tableLayout;fillColor=#FFFFFF;" vertex="1" parent="1">
          <mxGeometry x="630" y="175" width="110" height="70" as="geometry" />
        </mxCell>
        <mxCell id="nuIwZcw9V5fFqdJJb3ko-17" value="" style="shape=partialRectangle;html=1;whiteSpace=wrap;collapsible=0;dropTarget=0;pointerEvents=0;fillColor=none;top=0;left=0;bottom=0;right=0;points=[[0,0.5],[1,0.5]];portConstraint=eastwest;" vertex="1" parent="nuIwZcw9V5fFqdJJb3ko-16">
          <mxGeometry width="110" height="24" as="geometry" />
        </mxCell>
        <mxCell id="nuIwZcw9V5fFqdJJb3ko-18" value="" style="shape=partialRectangle;html=1;whiteSpace=wrap;connectable=0;fillColor=none;top=0;left=0;bottom=0;right=0;overflow=hidden;" vertex="1" parent="nuIwZcw9V5fFqdJJb3ko-17">
          <mxGeometry width="37" height="24" as="geometry" />
        </mxCell>
        <mxCell id="nuIwZcw9V5fFqdJJb3ko-19" value="" style="shape=partialRectangle;html=1;whiteSpace=wrap;connectable=0;fillColor=none;top=0;left=0;bottom=0;right=0;overflow=hidden;" vertex="1" parent="nuIwZcw9V5fFqdJJb3ko-17">
          <mxGeometry x="37" width="36" height="24" as="geometry" />
        </mxCell>
        <mxCell id="nuIwZcw9V5fFqdJJb3ko-20" value="" style="shape=partialRectangle;html=1;whiteSpace=wrap;connectable=0;fillColor=none;top=0;left=0;bottom=0;right=0;overflow=hidden;" vertex="1" parent="nuIwZcw9V5fFqdJJb3ko-17">
          <mxGeometry x="73" width="37" height="24" as="geometry" />
        </mxCell>
        <mxCell id="nuIwZcw9V5fFqdJJb3ko-21" value="" style="shape=partialRectangle;html=1;whiteSpace=wrap;collapsible=0;dropTarget=0;pointerEvents=0;fillColor=none;top=0;left=0;bottom=0;right=0;points=[[0,0.5],[1,0.5]];portConstraint=eastwest;" vertex="1" parent="nuIwZcw9V5fFqdJJb3ko-16">
          <mxGeometry y="24" width="110" height="22" as="geometry" />
        </mxCell>
        <mxCell id="nuIwZcw9V5fFqdJJb3ko-22" value="" style="shape=partialRectangle;html=1;whiteSpace=wrap;connectable=0;fillColor=none;top=0;left=0;bottom=0;right=0;overflow=hidden;" vertex="1" parent="nuIwZcw9V5fFqdJJb3ko-21">
          <mxGeometry width="37" height="22" as="geometry" />
        </mxCell>
        <mxCell id="nuIwZcw9V5fFqdJJb3ko-23" value="" style="shape=partialRectangle;html=1;whiteSpace=wrap;connectable=0;fillColor=none;top=0;left=0;bottom=0;right=0;overflow=hidden;" vertex="1" parent="nuIwZcw9V5fFqdJJb3ko-21">
          <mxGeometry x="37" width="36" height="22" as="geometry" />
        </mxCell>
        <mxCell id="nuIwZcw9V5fFqdJJb3ko-24" value="" style="shape=partialRectangle;html=1;whiteSpace=wrap;connectable=0;fillColor=none;top=0;left=0;bottom=0;right=0;overflow=hidden;" vertex="1" parent="nuIwZcw9V5fFqdJJb3ko-21">
          <mxGeometry x="73" width="37" height="22" as="geometry" />
        </mxCell>
        <mxCell id="nuIwZcw9V5fFqdJJb3ko-25" value="" style="shape=partialRectangle;html=1;whiteSpace=wrap;collapsible=0;dropTarget=0;pointerEvents=0;fillColor=none;top=0;left=0;bottom=0;right=0;points=[[0,0.5],[1,0.5]];portConstraint=eastwest;" vertex="1" parent="nuIwZcw9V5fFqdJJb3ko-16">
          <mxGeometry y="46" width="110" height="24" as="geometry" />
        </mxCell>
        <mxCell id="nuIwZcw9V5fFqdJJb3ko-26" value="" style="shape=partialRectangle;html=1;whiteSpace=wrap;connectable=0;fillColor=none;top=0;left=0;bottom=0;right=0;overflow=hidden;" vertex="1" parent="nuIwZcw9V5fFqdJJb3ko-25">
          <mxGeometry width="37" height="24" as="geometry" />
        </mxCell>
        <mxCell id="nuIwZcw9V5fFqdJJb3ko-27" value="" style="shape=partialRectangle;html=1;whiteSpace=wrap;connectable=0;fillColor=none;top=0;left=0;bottom=0;right=0;overflow=hidden;" vertex="1" parent="nuIwZcw9V5fFqdJJb3ko-25">
          <mxGeometry x="37" width="36" height="24" as="geometry" />
        </mxCell>
        <mxCell id="nuIwZcw9V5fFqdJJb3ko-28" value="" style="shape=partialRectangle;html=1;whiteSpace=wrap;connectable=0;fillColor=none;top=0;left=0;bottom=0;right=0;overflow=hidden;" vertex="1" parent="nuIwZcw9V5fFqdJJb3ko-25">
          <mxGeometry x="73" width="37" height="24" as="geometry" />
        </mxCell>
        <UserObject label="2D Microstructure Sample Image" placeholders="1" name="Variable" id="nuIwZcw9V5fFqdJJb3ko-30">
          <mxCell style="text;html=1;strokeColor=none;fillColor=none;align=center;verticalAlign=middle;whiteSpace=wrap;overflow=hidden;" vertex="1" parent="1">
            <mxGeometry x="70" y="250" width="110" height="40" as="geometry" />
          </mxCell>
        </UserObject>
        <UserObject label="3D Reconstructed Microstructure" placeholders="1" name="Variable" id="nuIwZcw9V5fFqdJJb3ko-31">
          <mxCell style="text;html=1;strokeColor=none;fillColor=none;align=center;verticalAlign=middle;whiteSpace=wrap;overflow=hidden;" vertex="1" parent="1">
            <mxGeometry x="350" y="250" width="110" height="40" as="geometry" />
          </mxCell>
        </UserObject>
        <UserObject label="3D Node-Edge Graph" placeholders="1" name="Variable" id="nuIwZcw9V5fFqdJJb3ko-32">
          <mxCell style="text;html=1;strokeColor=none;fillColor=none;align=center;verticalAlign=middle;whiteSpace=wrap;overflow=hidden;" vertex="1" parent="1">
            <mxGeometry x="630" y="250" width="110" height="40" as="geometry" />
          </mxCell>
        </UserObject>
      </root>
    </mxGraphModel>
  </diagram>
</mxfile>
